<?xml version="1.0" encoding="UTF-8"?>
<svg id="Capa_2" data-name="Capa 2" xmlns="http://www.w3.org/2000/svg" viewBox="0 0 255.62 124.3">
  <defs>
    <style>
      .cls-1 {
        fill: #020304;
      }
    </style>
  </defs>
  <g id="Capa_1-2" data-name="Capa 1">
    <g>
      <path class="cls-1" d="M94.16,65.25c.2,2.04-.77,2.54-2.18,2.71-15.9,1.98-27.77,10.34-37.18,22.98-5.1,6.85-8.62,14.47-12.23,22.09-1.38,2.91-2.9,5.78-4.67,8.46-2.33,3.52-4.57,3.68-7.67,.75-3.02-2.86-5.07-6.47-6.91-10.12C13.17,91.96,5.45,70.89,1.85,48.58c-1.57-9.75-3.05-19.81-.36-29.67C4.27,8.74,13.03-.22,27.23,5.07c7.93,2.95,15.37,6.64,22.01,11.95-4.15-.72-8.06-2.18-12.17-2.98-12.89-2.53-23.23,4.29-25.88,17.2-2.87,14.03-.91,27.76,2.56,41.36,2.33,9.12,4.53,18.31,8.67,26.85,1.68,3.47,3.58,6.84,6.28,9.64,3.02,3.13,4.67,2.99,7.02-.58,1.02-1.55,1.94-3.19,2.66-4.9,4.57-10.74,12.44-18.86,21.18-26.14,7.65-6.37,17.2-8.57,26.62-10.82,2.6-.62,5.29-.93,7.97-1.38Z"/>
      <path class="cls-1" d="M80.99,97.26c12.09-18.17,20.7-37.93,27-58.73,1.52-5.03,1.98-10.23,1.29-15.51-.94-7.08-5.55-11.37-12.6-11.81-7.87-.49-15.33,1.5-22.66,3.81-7.71,2.44-14.88,1.57-22.03-1.82-7.48-3.55-14.29-8.54-22.55-10.46-2.66-.62-5.31-1.21-8.03-1.37,.19-1.69,1.43-1.27,2.39-1.32,6.12-.31,11.8,1.36,17.24,3.98,3.46,1.67,7,3.21,10.3,5.15,7.98,4.7,16.05,4.19,24.34,1.03,8.68-3.31,17.25-7.37,26.89-6.43,14.55,1.4,21.38,9.21,18.95,23.81-3.55,21.32-14.58,39.13-27.44,55.94-3.17,4.15-6.74,8-10.15,11.96-.77,.89-1.33,2.2-2.93,1.78Z"/>
      <path class="cls-1" d="M230.31,55.02c-.84,4.63-4.4,3.43-7.27,3.41-2.94-.02-4.42-1.99-4.97-4.69-.46-2.22-.17-4.47,.06-6.7,.18-1.78,.59-3.66-2.27-3.46-1.12,.08-1.52-.66-1.49-1.68,.03-1.05,.55-1.64,1.64-1.52,1.8,.21,2.5-.61,2.39-2.36-.11-1.74,1.08-2.03,2.45-2.04,1.38-.01,2.65,.25,2.37,2.02-.43,2.71,1.37,2.29,2.99,2.38,1.31,.08,3.37-.82,3.29,1.71-.08,2.48-2.05,1.65-3.38,1.53-2.43-.21-3.48,.74-3.28,3.19,.09,1.11-.04,2.24-.02,3.36,.07,4.13,.7,4.62,4.65,3.69,1.82-.43,3.61-.17,4.22-3.04,.51-2.4,3.53-2.82,5.86-3.3,1.1-.23,2.23-.31,3.29-.63,.66-.2,1.53-.47,1.49-1.43-.05-1.16-.99-1.25-1.87-1.36-2.8-.35-5.3,.5-7.64,2.23-.73-5.19-.39-5.65,4.04-6.04,8.06-.69,10.39,1.32,10.82,9.3,.09,1.74,.33,3.48,.4,5.22,.06,1.52,.74,3.36-1.89,3.61-2.58,.25-3.23-.13-3.93-2.9-4.98,4.27-8.07,4.18-11.95-.52Zm12.12-4.13c-.1-1.72-1.33-1.75-2.62-1.65-2.03,.16-3.75,1.02-3.88,3.19-.09,1.65,1.36,2.31,2.87,2.06,1.95-.32,3.45-1.29,3.63-3.61Z"/>
      <path class="cls-1" d="M154.07,46.81c0-2.99,.11-5.99-.04-8.97-.11-2.19,.81-2.89,2.85-2.74,1.36,.1,2.74,0,4.11,0,9.84,.03,14.93,5.99,13.39,15.66-.7,4.35-3.54,7.27-7.94,7.59-3.59,.26-7.22,0-10.83,.08-1.97,.04-2.2-1.09-2.17-2.64,.05-2.99,.01-5.98,.01-8.97,.21,0,.41,0,.62,0Zm8.43,7.07c4.98-.05,7.27-2.22,7.16-6.45-.14-5.07-3.1-7.98-7.85-7.95-2.16,.02-3.25,.76-3.19,3.02,.06,2.48,.11,4.97-.01,7.45-.16,3.14,1.24,4.37,3.9,3.92Z"/>
      <path class="cls-1" d="M199.75,42.97c6.62-4.97,11.88-2.87,13.06,4.83,.39,2.56,.19,5.21,.4,7.81,.16,2.05-.51,2.88-2.69,2.88-2.23,0-2.75-.89-2.59-2.92,.17-2.22,.14-4.48,0-6.7-.15-2.5-1.45-4.43-4.04-4.53-2.63-.1-3.86,1.79-4.29,4.28-.43,2.49-.09,4.97,.1,7.44,.14,1.82-.56,2.5-2.32,2.38-1.46-.1-3.07,.29-2.97-2.13,.18-4.35,.16-8.7,.35-13.05,.06-1.4-.02-3.07,2.32-2.99,1.72,.06,3.18,.12,2.67,2.69Z"/>
      <path class="cls-1" d="M181.32,52.02c2.39,3.08,5.34,3.09,8.67,1.74,.82-.33,1.7-2.32,2.61-.55,.6,1.17,.9,2.87-.62,4.06-2.67,2.07-10.22,1.59-13.06-.88-3.14-2.73-3.9-8.57-1.61-12.37,2.05-3.4,7.11-4.94,11.27-3.33,2.73,1.05,4.22,3.06,3.92,6.05-.31,3.1-2.45,4.45-5.25,4.89-1.73,.27-3.46,.02-5.13-.55-1.04-.33-1.41-.11-.8,.95Zm3.27-2.76c1.78-.19,3.33-.59,3.38-2.69,.05-2.13-1.39-2.7-3.18-2.62-1.99,.09-3.86,.74-3.79,3.07,.06,2.23,2.32,1.66,3.6,2.24Z"/>
      <path class="cls-1" d="M249.74,47.15c.19-3.47,.47-6.93,.53-10.4,.05-2.75,1.89-2.38,3.61-2.33,2.16,.07,1.77,1.54,1.6,2.93-.71,6.06-.5,12.14-.38,18.21,.04,1.93-.23,2.99-2.55,2.93-2.07-.04-2.89-.64-2.77-2.78,.15-2.84,.04-5.7,.04-8.56-.03,0-.05,0-.08,0Z"/>
      <path class="cls-1" d="M243.76,66.87c-29.34,.3-58.68,.83-88.03,0h88.03Z"/>
      <path class="cls-1" d="M46.47,51.61c4.97,5.51,10.37,8.76,17.52,8.38,7.21-.38,11.98-4.02,14.95-10.71,.82,5.71-4.5,11.37-11.61,12.76-8.68,1.7-18.93-3.12-20.85-10.43Z"/>
      <path class="cls-1" d="M79.38,35.99c-.28,1.96,.77,5.59-2.71,5.54-2.87-.04-2.37-3.55-2.6-5.77-.21-1.97-.13-3.97-.04-5.95,.05-1.21,.69-2.09,2.03-2.27,1.44-.19,1.97,.82,2.42,1.86,.86,1.99,.9,4.11,.9,6.59Z"/>
      <path class="cls-1" d="M46.41,35.4c0-1.86-.04-3.71,.01-5.57,.03-1.09,.6-1.93,1.72-2.09,1.16-.17,1.86,.54,2.17,1.6,1.21,4.13,.98,8.3,.16,12.45-.17,.86-.97,1.52-1.93,1.44-1.08-.09-1.89-.79-1.95-1.9-.1-1.97-.03-3.95-.03-5.93-.05,0-.09,0-.14,0Z"/>
      <path class="cls-1" d="M197.73,77.1c-1.01,2.64-2.3,2.83-4.11,.24,0,1.28,0,2.56,0,3.84,0,.75-.42,1.11-1.14,1.12-.84,.02-.97-.57-.97-1.23,0-2.36-.03-4.71,0-7.07,0-.68-.28-1.58,.73-1.83,.85-.21,1.38,.3,1.8,.98,.57,.9,1.17,1.79,1.74,2.67,1.91-.85,1.67-4.34,3.89-3.5,1.95,.74,.78,3.32,.75,5.02-.03,1.63,1.1,4.68-.88,4.68-2.39,0-.03-3.24-1.82-4.93Z"/>
      <path class="cls-1" d="M207.6,76.75c-1.44-1.63-2.72-.21-3.85-.67,1.09-1.95,2.76-2.54,4.47-1.42,2.59,1.7,2.08,4.74,1.5,6.71-.47,1.59-3.46,1.31-5.28,.65-1.94-.7-1.96-2.95-.1-4.04,.9-.53,1.99-.76,3.27-1.22Z"/>
      <path class="cls-1" d="M211.29,74.08c2.81,.52,4.84,3.14,7.04,0-1.86,3.03-1.94,5.61,.61,8.22-2.46-1.29-4.72-1.85-7.16,.1,2.27-2.79,2.41-5.33-.49-8.34Z"/>
      <path class="cls-1" d="M181.32,52.02c-.61-1.06-.24-1.28,.8-.95-.27,.32-.53,.63-.8,.95Z"/>
    </g>
  </g>
</svg>